<svg xmlns="http://www.w3.org/2000/svg" height="128" width="128">
<path fill="#3d3d3d" d="m 87.6,77.1 2.9,-7.3 h 8.3 L 94.9,58.7 99.8,46.2 114,83.8 h -10.4 l -2.4,-6.7 z" />
<path fill="#5a0fc8" d="M 78.7,81.8 93.9,44.1 83.8,44.1 73.4,68.5 66,44.1 h -7.7 l -7.9,24.3 -5.6,-11.1 -5.1,15.6 5.1,8.8 h 9.9 l 7.2,-21.8 6.8,21.8 z" />
<path fill="#3d3d3d" d="m 23.5,68.9 h 6.2 c 1.9,0 3.5,-0.2 5,-0.6 l 1.6,-4.9 4.5,-13.8 c -0.3,-0.5 -0.7,-1 -1.2,-1.5 -2.3,-2.5 -5.7,-3.8 -10.1,-3.8 H 14 v 37.6 h 9.5 z m 8.2,-16.1 c 0.9,0.9 1.3,2.1 1.3,3.6 0,1.5 -0.4,2.7 -1.2,3.6 -0.9,1 -2.5,1.5 -4.8,1.5 H 23.5 V 51.4 h 3.6 c 2.2,0 3.7,0.4 4.6,1.4 z" />
</svg>
